<?xml version="1.0" standalone="no"?><!DOCTYPE svg PUBLIC "-//W3C//DTD SVG 1.1//EN" "http://www.w3.org/Graphics/SVG/1.1/DTD/svg11.dtd"><svg t="1711524117138" class="icon" viewBox="0 0 1024 1024" version="1.1" xmlns="http://www.w3.org/2000/svg" p-id="3645" xmlns:xlink="http://www.w3.org/1999/xlink" width="200" height="200"><path d="M298.4 387c-88.8 0-161.1-72.3-161.1-161.1s72.3-161 161.1-161S459.5 137.2 459.5 226s-72.3 161-161.1 161z m0-258.1c-53.5 0-97.1 43.5-97.1 97.1s43.5 97.1 97.1 97.1 97.1-43.5 97.1-97.1-43.6-97.1-97.1-97.1zM294.5 950.9c-14.6 0-27.4-9.9-31-24.1L141.6 450.6c-2.5-9.6-0.3-19.7 5.7-27.6 6.1-7.8 15.4-12.4 25.3-12.4h243.8c9.9 0 19.2 4.6 25.3 12.4 6.1 7.8 8.2 18 5.7 27.6L325.5 926.9c-3.6 14.1-16.4 24-31 24z m-80.7-476.3l80.7 315.2 80.7-315.2H213.8zM769.2 389.6c-67.7 0-122.8-55.1-122.8-122.8S701.5 144 769.2 144 892 199 892 266.7s-55.1 122.9-122.8 122.9z m0-181.7c-32.4 0-58.8 26.4-58.8 58.8s26.4 58.8 58.8 58.8 58.8-26.4 58.8-58.8-26.4-58.8-58.8-58.8zM766.4 798.8c-14.6 0-27.4-9.9-31-24.1l-85.8-335.3c-2.5-9.6-0.3-19.7 5.7-27.6s15.4-12.4 25.3-12.4h171.6c9.9 0 19.2 4.6 25.3 12.4s8.2 18 5.7 27.6l-85.8 335.3c-3.6 14.2-16.3 24.1-31 24.1z m-44.6-335.2l44.6 174.2L811 463.6h-89.2z" fill="" p-id="3646"></path><path d="M501.9 957.2H299.7c-17.7 0-32-14.3-32-32s14.3-32 32-32h170.2V771.3c0-17.5 14-31.7 31.5-32l260.9-4.4h0.6c17.4 0 31.7 14 32 31.5 0.3 17.7-13.8 32.2-31.5 32.5l-229.5 3.9v122.5c0 17.6-14.4 31.9-32 31.9z" fill="" p-id="3647"></path></svg>